<?xml version="1.0" standalone="no"?>
<!DOCTYPE svg PUBLIC "-//W3C//DTD SVG 20010904//EN"
 "http://www.w3.org/TR/2001/REC-SVG-20010904/DTD/svg10.dtd">
<svg version="1.0" xmlns="http://www.w3.org/2000/svg"
 width="192.000000pt" height="192.000000pt" viewBox="0 0 192.000000 192.000000"
 preserveAspectRatio="xMidYMid meet">
<metadata>
Created by potrace 1.11, written by Peter Selinger 2001-2013
</metadata>
<g transform="translate(0.000000,192.000000) scale(0.100000,-0.100000)"
fill="#000000" stroke="none">
<path d="M0 960 l0 -960 960 0 960 0 0 960 0 960 -960 0 -960 0 0 -960z m675
436 c82 -16 136 -35 188 -66 35 -21 37 -24 37 -76 0 -30 -2 -54 -5 -54 -3 0
-37 16 -75 36 -102 52 -209 72 -300 56 -83 -14 -116 -30 -171 -79 -64 -58 -92
-122 -97 -224 -9 -183 70 -315 219 -364 73 -24 216 -17 287 14 l52 23 0 119 0
119 -115 0 -115 0 0 50 0 50 165 0 165 0 0 -204 0 -203 -62 -28 c-76 -34 -204
-64 -274 -65 -66 0 -181 31 -237 63 -95 56 -174 174 -196 291 -30 164 7 308
109 419 105 115 252 158 425 123z m963 -37 c48 -24 68 -41 88 -75 61 -104 35
-227 -61 -290 l-25 -16 51 -27 c87 -44 127 -119 115 -219 -11 -96 -57 -154
-149 -189 -33 -13 -93 -17 -289 -21 l-248 -4 0 436 0 436 228 0 229 0 61 -31z"/>
<path d="M1240 1154 l0 -136 158 4 c175 4 195 10 233 71 44 71 0 167 -87 187
-21 5 -99 10 -171 10 l-133 0 0 -136z"/>
<path d="M1240 771 l0 -151 140 0 c76 0 163 5 192 11 145 31 172 194 43 259
-46 23 -63 25 -212 28 l-163 4 0 -151z"/>
</g>
</svg>
